<?xml version="1.0" encoding="utf-8"?>
<!-- Generator: Adobe Illustrator 19.2.1, SVG Export Plug-In . SVG Version: 6.00 Build 0)  -->
<svg version="1.1" id="Layer_1" xmlns="http://www.w3.org/2000/svg" xmlns:xlink="http://www.w3.org/1999/xlink" x="0px" y="0px"
	 width="300px" height="300px" viewBox="0 0 300 300" enable-background="new 0 0 300 300" xml:space="preserve">
<path fill="#ED1C24" d="M86.5,85.9c-4.5-1.1-8.6-3.2-12.2-6.6c-4.6-4.3-9.2-8.7-12.4-14.1c-3.2-5.4-5-12-3.4-18
	c3.7-13.7,20.1-13.5,30.1-7.5c7.2,4.3,14.2,9.4,17.6,17.4c-0.2-1.6-0.6-3.3-0.7-4.9c-0.2-5-0.7-9.9,0.2-14.8
	c1.9-10.8,12.2-23.4,24.4-19.4c5.8,1.9,10.1,6.8,12.6,12.4c4.4,10,3,22.3-3.5,30.9c8-10.6,18.4-23.3,31.1-28.2
	c18.7-7.3,30.2,8.1,25.8,25.6c-3,11.9-10.6,23.9-21,30.8c-12.2,8.1-15.9-1.7-28.1-4.5C128.2,80.8,104.4,90.5,86.5,85.9z"/>
<circle fill="#FEEB45" cx="114.8" cy="176.8" r="106"/>
<circle fill="#FFFFFF" cx="143.3" cy="142.4" r="24.5"/>
<path fill="#00AEEF" d="M146.5,138.6c0.9,1,1.5,2.3,1.5,3.7c0,2.9-2.4,5.3-5.3,5.3s-5.3-2.4-5.3-5.3c0-2.6,1.9-4.8,4.4-5.2
	c-0.5-0.1-0.9-0.1-1.4-0.1c-6.8,0-12.3,5.5-12.3,12.3c0,6.8,5.5,12.3,12.3,12.3c6.8,0,12.3-5.5,12.3-12.3
	C152.8,144.8,150.3,140.7,146.5,138.6z"/>
<circle fill="#FFFFFF" cx="89.3" cy="142.4" r="24.5"/>
<path fill="#00AEEF" d="M92.6,138.6c0.9,1,1.5,2.3,1.5,3.7c0,2.9-2.4,5.3-5.3,5.3s-5.3-2.4-5.3-5.3c0-2.6,1.9-4.8,4.4-5.2
	c-0.5-0.1-0.9-0.1-1.4-0.1c-6.8,0-12.3,5.5-12.3,12.3c0,6.8,5.5,12.3,12.3,12.3s12.3-5.5,12.3-12.3
	C98.8,144.8,96.3,140.7,92.6,138.6z"/>
<path fill="#F7941E" d="M96.5,194.6c0,0,29.9-18.7,41.9-0.2l-16.7,50.1L96.5,194.6z"/>
<circle fill="#F7FBFA" stroke="#961A36" stroke-width="16.1611" stroke-linecap="round" stroke-linejoin="round" stroke-miterlimit="10" cx="216.9" cy="225.9" r="49.1"/>
<line fill="none" stroke="#961A36" stroke-width="20.2014" stroke-linecap="round" stroke-linejoin="round" stroke-miterlimit="10" x1="216.9" y1="237.9" x2="287.2" y2="166.4"/>
<line fill="none" stroke="#961A36" stroke-width="20.2014" stroke-linecap="round" stroke-linejoin="round" stroke-miterlimit="10" x1="199.4" y1="218.3" x2="216.9" y2="237.9"/>
<g>
</g>
<g>
</g>
<g>
</g>
<g>
</g>
<g>
</g>
<g>
</g>
</svg>
